<?xml version="1.0" standalone="no"?>
<!DOCTYPE svg PUBLIC "-//W3C//DTD SVG 20010904//EN"
 "http://www.w3.org/TR/2001/REC-SVG-20010904/DTD/svg10.dtd">
<svg version="1.0" xmlns="http://www.w3.org/2000/svg"
 width="200.000000pt" height="200.000000pt" viewBox="0 0 200.000000 200.000000"
 preserveAspectRatio="xMidYMid meet">
<metadata>
Created by potrace 1.11, written by Peter Selinger 2001-2013
</metadata>
<g transform="translate(0.000000,200.000000) scale(0.100000,-0.100000)"
fill="#000000" stroke="none">
<path d="M865 1528 c-64 -19 -105 -37 -105 -48 0 -4 14 -32 31 -63 l30 -57 29
15 c16 8 51 20 78 26 l50 10 -1 70 c0 68 -1 69 -26 67 -15 -1 -53 -10 -86 -20z"/>
<path d="M1024 1483 l1 -68 60 -16 c33 -9 69 -20 80 -23 17 -5 25 4 52 53 l31
59 -46 20 c-60 25 -120 42 -153 42 -25 0 -26 -1 -25 -67z"/>
<path d="M635 1387 c-41 -43 -75 -81 -75 -85 0 -4 26 -25 57 -46 l58 -37 18
23 c10 13 33 39 52 58 l34 36 -31 59 c-17 33 -32 62 -35 65 -2 2 -37 -31 -78
-73z"/>
<path d="M1283 1448 c-6 -7 -22 -36 -36 -64 l-26 -52 27 -24 c15 -13 39 -39
53 -57 l26 -33 56 37 57 38 -17 28 c-10 16 -42 54 -73 84 -44 44 -59 53 -67
43z"/>
<path d="M978 1335 c-31 -31 -39 -65 -33 -147 3 -49 2 -55 -4 -29 -5 18 -16
40 -25 49 -15 15 -16 14 -16 -14 0 -16 -9 -46 -20 -67 -34 -63 -26 -104 30
-141 23 -15 16 -16 -139 -16 l-163 0 7 48 c3 26 13 71 21 101 8 29 14 54 12
56 -2 2 -28 19 -57 39 l-55 36 -14 -33 c-30 -70 -44 -129 -46 -204 l-1 -43
-187 0 -188 0 0 -260 0 -260 900 0 900 0 0 260 0 260 -185 0 -185 0 0 33 c0
47 -26 159 -47 206 l-18 41 -58 -38 c-38 -24 -56 -42 -53 -52 24 -78 36 -130
36 -157 l0 -33 -214 0 c-242 0 -243 0 -231 70 7 41 25 65 25 33 1 -16 3 -15
20 6 11 13 20 32 20 43 0 11 5 16 11 13 6 -4 9 -24 8 -46 -2 -21 0 -41 4 -45
4 -4 7 1 7 12 1 15 4 13 16 -10 9 -15 14 -37 11 -47 -8 -29 18 -23 47 12 30
35 33 73 10 127 -9 20 -16 54 -15 74 0 44 -19 43 -41 -2 -16 -33 -28 -29 -51
17 -19 36 -24 78 -13 111 9 28 5 28 -26 -3z"/>
</g>
</svg>
